<svg xmlns="http://www.w3.org/2000/svg" viewBox="0 0 1280 285" width="1280" height="285" role="img" aria-label="About Ahmed Rezk"><title>About Ahmed Rezk</title><style>text{font-family:'JetBrains Mono','SF Mono','Cascadia Code',Consolas,'Liberation Mono',Menlo,monospace}
.f1{animation:fl 3.1s steps(1) infinite}.f2{animation:fl 4.3s steps(1) infinite .7s}.f3{animation:fl 2.7s steps(1) infinite 1.3s}
@keyframes fl{0%,100%{opacity:1}40%{opacity:.15}55%{opacity:1}70%{opacity:.4}}
.blink{animation:bl 1.1s steps(1) infinite}@keyframes bl{0%,50%{opacity:1}50.01%,100%{opacity:0}}
@media (prefers-reduced-motion: reduce){*{animation:none!important}}</style><rect width="1280" height="285" rx="10" fill="#131517"/><text x="36" y="44" font-size="13" fill="#5d6268" letter-spacing="1">~/ahmed $ <tspan fill="#f4f5f6">cat profile.cfg</tspan></text><line x1="36" y1="60" x2="760" y2="60" stroke="#24282c"/><text x="36" y="92" font-size="14" fill="#3ecf73" letter-spacing="1">role</text><text x="130" y="92" font-size="14" fill="#5d6268">=</text><text x="156" y="92" font-size="14" fill="#d9dcdf" letter-spacing=".6">Software Engineer</text><text x="36" y="119" font-size="14" fill="#3ecf73" letter-spacing="1">focus</text><text x="130" y="119" font-size="14" fill="#5d6268">=</text><text x="156" y="119" font-size="14" fill="#d9dcdf" letter-spacing=".6">scalable backend systems</text><text x="36" y="146" font-size="14" fill="#3ecf73" letter-spacing="1">bridge</text><text x="130" y="146" font-size="14" fill="#5d6268">=</text><text x="156" y="146" font-size="14" fill="#d9dcdf" letter-spacing=".6">Embedded Linux / IoT  &lt;-&gt;  APIs / AI systems</text><text x="36" y="173" font-size="14" fill="#3ecf73" letter-spacing="1">edge</text><text x="130" y="173" font-size="14" fill="#5d6268">=</text><text x="156" y="173" font-size="14" fill="#d9dcdf" letter-spacing=".6">offline-first AI on constrained hardware</text><text x="36" y="200" font-size="14" fill="#3ecf73" letter-spacing="1">mode</text><text x="130" y="200" font-size="14" fill="#5d6268">=</text><text x="156" y="200" font-size="14" fill="#d9dcdf" letter-spacing=".6">bootstrap fast, break it down, ship it</text><text x="36" y="227" font-size="14" fill="#3ecf73" letter-spacing="1">base</text><text x="130" y="227" font-size="14" fill="#5d6268">=</text><text x="156" y="227" font-size="14" fill="#d9dcdf" letter-spacing=".6">Mansoura, Egypt  ·  B.Sc. Computer Engineering</text><text x="36" y="254" font-size="14" fill="#5d6268">~/ahmed $ <tspan class="blink" fill="#3ecf73">█</tspan></text><rect x="1050" y="162" width="11" height="11" fill="#bdbdbd" opacity="0.60"/><rect x="912" y="66" width="5" height="5" fill="#bfbfbf" opacity="0.33"/><rect x="864" y="132" width="5" height="5" fill="#5d5d5d" opacity="0.24"/><rect x="1140" y="30" width="5" height="5" fill="#ababab" opacity="0.78"/><rect class="f1" x="1134" y="186" width="5" height="5" fill="#494949" opacity="0.77"/><rect x="912" y="78" width="5" height="5" fill="#bcbcbc" opacity="0.33"/><rect x="918" y="150" width="5" height="5" fill="#919191" opacity="0.34"/><rect x="1050" y="186" width="5" height="5" fill="#5b5b5b" opacity="0.60"/><rect class="f1" x="936" y="150" width="5" height="5" fill="#575757" opacity="0.38"/><rect class="f1" x="966" y="114" width="5" height="5" fill="#4a4a4a" opacity="0.44"/><rect x="846" y="138" width="5" height="5" fill="#ababab" opacity="0.20"/><rect x="918" y="216" width="5" height="5" fill="#9c9c9c" opacity="0.34"/><rect class="f1" x="1026" y="210" width="11" height="11" fill="#686868" opacity="0.56"/><rect class="f3" x="1056" y="222" width="5" height="5" fill="#767676" opacity="0.62"/><rect x="1212" y="48" width="5" height="5" fill="#a8a8a8" opacity="0.92"/><rect class="f1" x="924" y="18" width="5" height="5" fill="#939393" opacity="0.36"/><rect class="f2" x="1020" y="174" width="5" height="5" fill="#3ecf73" opacity="0.55"/><rect x="948" y="18" width="5" height="5" fill="#9a9a9a" opacity="0.40"/><rect x="858" y="42" width="5" height="5" fill="#3ecf73" opacity="0.23"/><rect class="f2" x="1134" y="132" width="5" height="5" fill="#c1c1c1" opacity="0.77"/><rect x="912" y="180" width="5" height="5" fill="#808080" opacity="0.33"/><rect x="912" y="60" width="5" height="5" fill="#787878" opacity="0.33"/><rect class="f2" x="1062" y="174" width="5" height="5" fill="#525252" opacity="0.63"/><rect x="942" y="204" width="5" height="5" fill="#878787" opacity="0.39"/><rect x="1068" y="90" width="5" height="5" fill="#575757" opacity="0.64"/><rect x="1152" y="174" width="5" height="5" fill="#8d8d8d" opacity="0.81"/><rect class="f1" x="1200" y="24" width="5" height="5" fill="#afafaf" opacity="0.90"/><rect class="f2" x="960" y="114" width="5" height="5" fill="#676767" opacity="0.43"/><rect class="f1" x="984" y="186" width="5" height="5" fill="#cbcbcb" opacity="0.47"/><rect class="f3" x="828" y="138" width="11" height="11" fill="#959595" opacity="0.17"/><rect x="858" y="138" width="5" height="5" fill="#959595" opacity="0.23"/><rect x="858" y="132" width="5" height="5" fill="#515151" opacity="0.23"/><rect x="1176" y="48" width="5" height="5" fill="#9d9d9d" opacity="0.85"/><rect x="858" y="126" width="11" height="11" fill="#4d4d4d" opacity="0.23"/><rect class="f3" x="1134" y="186" width="5" height="5" fill="#494949" opacity="0.77"/><rect x="876" y="84" width="11" height="11" fill="#9a9a9a" opacity="0.26"/><rect x="1116" y="132" width="5" height="5" fill="#d0d0d0" opacity="0.74"/><rect x="834" y="96" width="5" height="5" fill="#3ecf73" opacity="0.18"/><rect class="f2" x="876" y="144" width="5" height="5" fill="#c2c2c2" opacity="0.26"/><rect x="888" y="192" width="5" height="5" fill="#cacaca" opacity="0.28"/><rect x="1152" y="132" width="5" height="5" fill="#838383" opacity="0.81"/><rect x="918" y="180" width="5" height="5" fill="#797979" opacity="0.34"/><rect x="1116" y="96" width="5" height="5" fill="#686868" opacity="0.74"/><rect class="f2" x="840" y="198" width="5" height="5" fill="#8c8c8c" opacity="0.19"/><rect x="960" y="72" width="11" height="11" fill="#a7a7a7" opacity="0.43"/><rect x="978" y="198" width="11" height="11" fill="#b9b9b9" opacity="0.46"/><rect x="960" y="174" width="5" height="5" fill="#8d8d8d" opacity="0.43"/><rect class="f2" x="1224" y="162" width="5" height="5" fill="#686868" opacity="0.95"/><rect class="f1" x="936" y="216" width="5" height="5" fill="#525252" opacity="0.38"/><rect x="1140" y="156" width="5" height="5" fill="#a4a4a4" opacity="0.78"/><rect x="918" y="228" width="5" height="5" fill="#737373" opacity="0.34"/><rect x="1092" y="198" width="5" height="5" fill="#7f7f7f" opacity="0.69"/><rect x="1176" y="150" width="5" height="5" fill="#6e6e6e" opacity="0.85"/><rect x="930" y="42" width="5" height="5" fill="#a9a9a9" opacity="0.37"/><rect x="1140" y="18" width="5" height="5" fill="#c6c6c6" opacity="0.78"/><rect x="1056" y="102" width="5" height="5" fill="#7a7a7a" opacity="0.62"/><rect x="1224" y="180" width="11" height="11" fill="#656565" opacity="0.95"/><rect x="864" y="96" width="5" height="5" fill="#989898" opacity="0.24"/><rect x="828" y="108" width="5" height="5" fill="#4f4f4f" opacity="0.17"/><rect x="1212" y="90" width="5" height="5" fill="#4d4d4d" opacity="0.92"/><rect x="1038" y="222" width="5" height="5" fill="#cecece" opacity="0.58"/><rect x="888" y="138" width="5" height="5" fill="#cacaca" opacity="0.28"/><rect x="1164" y="192" width="5" height="5" fill="#c4c4c4" opacity="0.83"/><rect x="1206" y="72" width="5" height="5" fill="#909090" opacity="0.91"/><rect x="900" y="150" width="5" height="5" fill="#878787" opacity="0.31"/><rect x="1128" y="72" width="5" height="5" fill="#6a6a6a" opacity="0.76"/><rect class="f2" x="1110" y="144" width="5" height="5" fill="#cfcfcf" opacity="0.72"/><rect x="834" y="156" width="11" height="11" fill="#cacaca" opacity="0.18"/><rect x="1104" y="48" width="5" height="5" fill="#3ecf73" opacity="0.71"/><rect x="1026" y="222" width="11" height="11" fill="#8a8a8a" opacity="0.56"/><rect class="f2" x="990" y="126" width="11" height="11" fill="#bfbfbf" opacity="0.49"/><rect x="1134" y="24" width="11" height="11" fill="#676767" opacity="0.77"/><rect x="834" y="66" width="5" height="5" fill="#494949" opacity="0.18"/><rect x="996" y="78" width="5" height="5" fill="#606060" opacity="0.50"/><rect x="1080" y="174" width="5" height="5" fill="#787878" opacity="0.66"/><rect x="828" y="114" width="5" height="5" fill="#cdcdcd" opacity="0.17"/><rect x="1140" y="156" width="5" height="5" fill="#cdcdcd" opacity="0.78"/><rect x="1116" y="54" width="5" height="5" fill="#9e9e9e" opacity="0.74"/><rect class="f1" x="978" y="66" width="5" height="5" fill="#777777" opacity="0.46"/><rect x="882" y="204" width="5" height="5" fill="#a9a9a9" opacity="0.27"/><rect x="1032" y="156" width="5" height="5" fill="#666666" opacity="0.57"/><rect x="1224" y="24" width="5" height="5" fill="#a1a1a1" opacity="0.95"/><rect x="876" y="198" width="5" height="5" fill="#9d9d9d" opacity="0.26"/><rect x="912" y="222" width="5" height="5" fill="#3ecf73" opacity="0.33"/><rect class="f1" x="1134" y="150" width="11" height="11" fill="#c1c1c1" opacity="0.77"/><rect class="f3" x="906" y="60" width="11" height="11" fill="#5e5e5e" opacity="0.32"/><rect x="1056" y="36" width="5" height="5" fill="#999999" opacity="0.62"/><rect x="996" y="126" width="5" height="5" fill="#3ecf73" opacity="0.50"/><rect x="918" y="66" width="5" height="5" fill="#a2a2a2" opacity="0.34"/><rect x="918" y="174" width="5" height="5" fill="#c9c9c9" opacity="0.34"/><rect class="f3" x="858" y="222" width="11" height="11" fill="#adadad" opacity="0.23"/><rect x="990" y="222" width="5" height="5" fill="#8d8d8d" opacity="0.49"/><rect x="1218" y="60" width="5" height="5" fill="#adadad" opacity="0.94"/><rect x="1092" y="192" width="5" height="5" fill="#b4b4b4" opacity="0.69"/><rect class="f2" x="1188" y="66" width="5" height="5" fill="#9d9d9d" opacity="0.88"/><rect x="1146" y="174" width="5" height="5" fill="#8b8b8b" opacity="0.79"/><rect x="990" y="72" width="5" height="5" fill="#747474" opacity="0.49"/><rect x="1074" y="180" width="5" height="5" fill="#646464" opacity="0.65"/><rect x="828" y="48" width="5" height="5" fill="#828282" opacity="0.17"/><rect x="840" y="210" width="5" height="5" fill="#3ecf73" opacity="0.19"/><rect x="960" y="102" width="5" height="5" fill="#c8c8c8" opacity="0.43"/><rect x="870" y="180" width="5" height="5" fill="#595959" opacity="0.25"/><rect x="840" y="114" width="11" height="11" fill="#6e6e6e" opacity="0.19"/><rect x="1068" y="156" width="5" height="5" fill="#545454" opacity="0.64"/><rect x="960" y="150" width="5" height="5" fill="#959595" opacity="0.43"/><rect x="1152" y="84" width="5" height="5" fill="#8e8e8e" opacity="0.81"/><rect x="828" y="18" width="5" height="5" fill="#505050" opacity="0.17"/><rect class="f3" x="1170" y="114" width="5" height="5" fill="#969696" opacity="0.84"/><rect x="978" y="36" width="5" height="5" fill="#7f7f7f" opacity="0.46"/><rect x="1206" y="78" width="5" height="5" fill="#5f5f5f" opacity="0.91"/><rect class="f3" x="1056" y="54" width="11" height="11" fill="#848484" opacity="0.62"/><rect class="f2" x="1032" y="132" width="5" height="5" fill="#535353" opacity="0.57"/><rect x="1044" y="54" width="5" height="5" fill="#bababa" opacity="0.59"/><rect class="f2" x="1164" y="126" width="5" height="5" fill="#cdcdcd" opacity="0.83"/><rect x="1194" y="48" width="5" height="5" fill="#636363" opacity="0.89"/><rect x="1074" y="174" width="11" height="11" fill="#8c8c8c" opacity="0.65"/><rect class="f1" x="1104" y="198" width="5" height="5" fill="#8d8d8d" opacity="0.71"/><rect class="f2" x="1074" y="186" width="11" height="11" fill="#505050" opacity="0.65"/><rect x="1032" y="24" width="5" height="5" fill="#606060" opacity="0.57"/><rect x="1206" y="42" width="11" height="11" fill="#6f6f6f" opacity="0.91"/><rect x="1008" y="138" width="5" height="5" fill="#7b7b7b" opacity="0.52"/><rect x="888" y="36" width="5" height="5" fill="#b8b8b8" opacity="0.28"/><rect x="1212" y="216" width="5" height="5" fill="#b2b2b2" opacity="0.92"/><rect x="894" y="114" width="5" height="5" fill="#999999" opacity="0.30"/><rect x="1242" y="66" width="5" height="5" fill="#a4a4a4" opacity="0.98"/><rect x="984" y="36" width="5" height="5" fill="#b4b4b4" opacity="0.47"/><rect x="1170" y="138" width="5" height="5" fill="#484848" opacity="0.84"/><rect x="1158" y="174" width="5" height="5" fill="#939393" opacity="0.82"/><rect x="984" y="90" width="11" height="11" fill="#7e7e7e" opacity="0.47"/><rect x="1002" y="48" width="5" height="5" fill="#b6b6b6" opacity="0.51"/><rect x="1170" y="90" width="5" height="5" fill="#949494" opacity="0.84"/><rect class="f3" x="1188" y="150" width="5" height="5" fill="#a2a2a2" opacity="0.88"/><rect x="1020" y="168" width="5" height="5" fill="#777777" opacity="0.55"/><rect x="1014" y="156" width="5" height="5" fill="#737373" opacity="0.53"/><rect class="f2" x="960" y="222" width="5" height="5" fill="#3ecf73" opacity="0.43"/><rect x="828" y="186" width="11" height="11" fill="#3ecf73" opacity="0.17"/><rect class="f2" x="1218" y="156" width="5" height="5" fill="#5a5a5a" opacity="0.94"/><rect x="858" y="24" width="5" height="5" fill="#6a6a6a" opacity="0.23"/><rect x="1032" y="78" width="5" height="5" fill="#c3c3c3" opacity="0.57"/><rect x="1206" y="132" width="5" height="5" fill="#9c9c9c" opacity="0.91"/><rect x="888" y="144" width="5" height="5" fill="#585858" opacity="0.28"/><rect x="1026" y="210" width="11" height="11" fill="#9f9f9f" opacity="0.56"/><rect x="1242" y="42" width="11" height="11" fill="#d0d0d0" opacity="0.98"/><rect x="1182" y="18" width="5" height="5" fill="#b1b1b1" opacity="0.87"/><rect x="942" y="204" width="5" height="5" fill="#a6a6a6" opacity="0.39"/><rect class="f2" x="1014" y="126" width="5" height="5" fill="#8c8c8c" opacity="0.53"/><rect class="f1" x="1194" y="48" width="5" height="5" fill="#6d6d6d" opacity="0.89"/><rect class="f1" x="1200" y="132" width="5" height="5" fill="#c1c1c1" opacity="0.90"/><rect x="918" y="66" width="5" height="5" fill="#828282" opacity="0.34"/><rect x="1080" y="72" width="5" height="5" fill="#8d8d8d" opacity="0.66"/></svg>