<svg xmlns="http://www.w3.org/2000/svg" viewBox="0 0 1280 64" width="1280" height="64" role="img" aria-label="whoami">
<style>
text{font-family:'JetBrains Mono','SF Mono','Cascadia Code',Consolas,'Liberation Mono',Menlo,monospace}
.f1{animation:fl 3.1s steps(1) infinite}
.f2{animation:fl 4.3s steps(1) infinite .7s}
.f3{animation:fl 2.7s steps(1) infinite 1.3s}
.f4{animation:fl 5.2s steps(1) infinite 2.1s}
@keyframes fl{0%,100%{opacity:1}40%{opacity:.15}55%{opacity:1}70%{opacity:.4}}
.blink{animation:bl 1.1s steps(1) infinite}
@keyframes bl{0%,50%{fill-opacity:1;opacity:1}50.01%,100%{fill-opacity:0;opacity:0}}
@media (prefers-reduced-motion: reduce){*{animation:none!important}}
</style>
<rect width="1280" height="64" rx="8" fill="#131517"/>
<rect x="1175" y="48" width="5" height="5" fill="#464646" opacity="0.67"/><rect x="1120" y="48" width="5" height="5" fill="#767676" opacity="0.50"/><rect x="1201" y="24" width="5" height="5" fill="#464646" opacity="0.75"/><rect x="1207" y="30" width="5" height="5" fill="#c8c8c8" opacity="0.77"/><rect x="1226" y="48" width="5" height="5" fill="#585858" opacity="0.83"/><rect x="1038" y="30" width="5" height="5" fill="#4b4b4b" opacity="0.24"/><rect x="1225" y="24" width="5" height="5" fill="#7b7b7b" opacity="0.83"/><rect x="1078" y="30" width="5" height="5" fill="#c3c3c3" opacity="0.37"/><rect x="1207" y="18" width="11" height="11" fill="#a7a7a7" opacity="0.77"/><rect x="1194" y="18" width="5" height="5" fill="#3ecf73" opacity="0.73"/><rect x="1086" y="42" width="5" height="5" fill="#777777" opacity="0.39"/><rect x="1097" y="6" width="5" height="5" fill="#939393" opacity="0.43"/><rect x="1250" y="24" width="5" height="5" fill="#494949" opacity="0.91"/><rect x="1274" y="42" width="5" height="5" fill="#969696" opacity="0.98"/><rect x="1116" y="42" width="5" height="5" fill="#606060" opacity="0.49"/><rect x="1151" y="30" width="5" height="5" fill="#919191" opacity="0.60"/><rect x="1219" y="24" width="5" height="5" fill="#626262" opacity="0.81"/><rect x="1087" y="36" width="11" height="11" fill="#c3c3c3" opacity="0.40"/><rect x="1192" y="30" width="5" height="5" fill="#858585" opacity="0.72"/><rect x="1144" y="48" width="5" height="5" fill="#aeaeae" opacity="0.57"/><rect x="1122" y="42" width="5" height="5" fill="#515151" opacity="0.51"/><rect class="f4" x="1146" y="36" width="11" height="11" fill="#737373" opacity="0.58"/><rect class="f1" x="1161" y="36" width="11" height="11" fill="#787878" opacity="0.63"/><rect x="1024" y="24" width="5" height="5" fill="#5a5a5a" opacity="0.20"/><rect x="1104" y="48" width="11" height="11" fill="#4b4b4b" opacity="0.45"/><rect x="1267" y="36" width="11" height="11" fill="#545454" opacity="0.96"/><rect class="f3" x="1253" y="30" width="5" height="5" fill="#565656" opacity="0.92"/><rect x="1092" y="48" width="5" height="5" fill="#b4b4b4" opacity="0.41"/><rect x="1106" y="36" width="5" height="5" fill="#4c4c4c" opacity="0.46"/><rect x="1187" y="30" width="5" height="5" fill="#6c6c6c" opacity="0.71"/><rect x="1275" y="30" width="11" height="11" fill="#797979" opacity="0.98"/><rect x="1032" y="6" width="5" height="5" fill="#9a9a9a" opacity="0.22"/><rect x="1253" y="6" width="5" height="5" fill="#575757" opacity="0.92"/><rect x="1127" y="36" width="5" height="5" fill="#7f7f7f" opacity="0.52"/><rect x="1087" y="48" width="5" height="5" fill="#535353" opacity="0.40"/><rect x="1214" y="24" width="5" height="5" fill="#595959" opacity="0.79"/><rect x="1269" y="12" width="5" height="5" fill="#5b5b5b" opacity="0.97"/><rect x="1077" y="12" width="5" height="5" fill="#6a6a6a" opacity="0.37"/><rect x="1047" y="42" width="5" height="5" fill="#404040" opacity="0.27"/><rect x="1111" y="30" width="5" height="5" fill="#a1a1a1" opacity="0.47"/><rect class="f2" x="1127" y="48" width="5" height="5" fill="#bbbbbb" opacity="0.52"/><rect class="f3" x="1093" y="12" width="5" height="5" fill="#6f6f6f" opacity="0.42"/><rect x="1161" y="48" width="11" height="11" fill="#8f8f8f" opacity="0.63"/><rect x="1151" y="6" width="5" height="5" fill="#959595" opacity="0.60"/><rect class="f2" x="1156" y="30" width="11" height="11" fill="#bdbdbd" opacity="0.61"/><rect x="1225" y="12" width="5" height="5" fill="#3ecf73" opacity="0.83"/>
<text x="28" y="39" font-size="20" fill="#3ecf73">&gt;</text>
<text x="52" y="39" font-size="20" fill="#f4f5f6" letter-spacing="1.5">whoami<tspan class="blink" fill="#3ecf73"> █</tspan></text>
<text x="52" y="54" font-size="8.5" fill="#6b7076" letter-spacing="1.4">// who's behind the pixels</text>
</svg>